<svg width="151" height="25" viewBox="0 0 151 25" fill="none" xmlns="http://www.w3.org/2000/svg">
<path fill-rule="evenodd" clip-rule="evenodd" d="M46.9147 11.8497H46.9981L49.9148 8.73777H52.4981L49.2481 12.0134L51.9981 15.7805H52.8315V18.2372H51.2481V16.7632H50.0814L47.7481 13.4875L46.9147 14.3064V16.7632H44.748V8.73777H46.9147V11.8497ZM56.1648 13.897H58.0815L57.2482 11.4402L57.1648 10.6213H57.0815L56.9982 11.4402L56.1648 13.897ZM55.7481 15.371L55.2481 16.7632H52.9981L56.0815 8.73777H58.2482L61.2482 16.7632H58.9982L58.5815 15.371H55.7481ZM62.0815 13.897H64.2482C64.2482 14.5521 64.4149 14.9616 64.8316 15.1253C65.2482 15.2891 65.5816 15.371 65.9982 15.371C66.4149 15.371 66.7482 15.371 67.0816 15.2072C67.4149 15.0434 67.5816 14.7978 67.5816 14.3883C67.5816 13.9788 67.4983 13.6513 67.2482 13.5694C66.9982 13.4056 66.6649 13.4056 66.3316 13.4056H65.1649V12.0134H66.0816C66.3316 12.0134 66.5816 11.9316 66.8316 11.8497C67.0816 11.6859 67.2482 11.4402 67.2482 11.1126C67.2482 10.7032 67.0816 10.3756 66.7482 10.2937C66.4149 10.1299 66.1649 10.1299 65.8316 10.1299C65.4149 10.1299 65.0816 10.2118 64.8316 10.3756C64.5816 10.5394 64.4149 10.9489 64.4149 11.4402H62.3315C62.3315 10.867 62.4149 10.2937 62.6649 9.88426C62.9149 9.39291 63.3315 9.06534 63.8316 8.90156C64.4149 8.65588 64.9982 8.57399 65.8316 8.57399H66.0816C66.9982 8.57399 67.6649 8.65588 68.1649 8.90156C68.6649 9.14723 68.9983 9.39291 69.2483 9.72047C69.4149 10.048 69.4983 10.3756 69.4983 10.7851C69.4983 11.3583 69.4149 11.7678 69.0816 12.0134C68.8316 12.2591 68.4983 12.4229 68.0816 12.5048V12.5867C68.5816 12.5867 68.9983 12.8324 69.3316 13.1599C69.7483 13.4875 69.9149 13.897 69.9149 14.5521C69.9149 15.2891 69.6649 15.7805 69.2483 16.108C68.8316 16.4356 68.4149 16.6813 67.8316 16.7632C67.3316 16.927 66.7482 16.927 66.1649 16.927C65.4149 16.927 64.7482 16.927 64.1649 16.7632C63.6649 16.5994 63.1649 16.2718 62.7482 15.8624C62.4149 15.371 62.1649 14.7978 62.0815 13.897ZM74.0816 13.897H75.915L75.0817 11.4402L74.9983 10.6213H74.915L74.8316 11.4402L74.0816 13.897ZM73.5816 15.371L73.165 16.7632H70.9149L73.915 8.73777H76.0817L79.0817 16.7632H76.8317L76.415 15.371H73.5816ZM82.6651 11.8497L85.5817 8.73777H88.1651L84.9151 12.0134L87.7484 15.7805H88.4984V18.2372H86.9151V16.7632H85.7484L83.4151 13.4875L82.6651 14.3064V16.7632H80.4984V8.73777H82.6651V11.8497ZM91.3318 10.5394H88.9984V8.73777H95.9152V10.5394H93.4985V16.7632H91.3318V10.5394ZM99.6652 11.8497H103.582V13.4875H99.6652V14.9616H104.249V16.7632H97.4985V8.73777H104.165V10.5394H99.6652V11.8497ZM105.082 16.7632V14.9616C105.332 14.9616 105.499 15.0434 105.665 15.0434C105.999 15.0434 106.249 14.9616 106.415 14.8797C106.582 14.7978 106.749 14.4702 106.832 14.1426C106.915 13.7332 106.999 13.1599 106.999 12.341V8.73777H113.332V16.7632H111.165V10.5394H108.999V13.3237C108.999 14.0607 108.915 14.7159 108.749 15.2072C108.665 15.6986 108.332 16.108 107.915 16.3537C107.499 16.6813 106.832 16.8451 106.082 16.8451C105.582 16.8451 105.249 16.8451 105.082 16.7632ZM117.749 11.8497H121.665V13.4875H117.749V14.9616H122.332V16.7632H115.582V8.73777H122.249V10.5394H117.749V11.8497ZM126.165 11.8497H126.249L129.165 8.73777H131.665L128.415 12.0134L131.999 16.7632H129.249L126.999 13.4875L126.165 14.3064V16.7632H123.999V8.73777H126.165V11.8497ZM134.249 12.7505C134.249 13.3237 134.416 13.8151 134.499 14.1426C134.666 14.5521 134.916 14.7978 135.166 14.9616C135.499 15.1253 135.832 15.2072 136.166 15.2072C136.666 15.2072 137.082 15.0434 137.332 14.7978C137.582 14.5521 137.832 14.3064 137.916 13.897C137.999 13.5694 138.082 13.1599 138.082 12.7505C138.082 12.341 137.999 11.9316 137.916 11.604C137.832 11.2764 137.582 10.9489 137.332 10.7032C137.082 10.4575 136.666 10.3756 136.166 10.3756C135.832 10.3756 135.499 10.4575 135.166 10.5394C134.916 10.7032 134.666 10.9489 134.499 11.3583C134.416 11.6859 134.249 12.1772 134.249 12.7505ZM136.166 17.0088C135.666 17.0088 135.082 16.927 134.499 16.7632C133.832 16.5175 133.249 16.1899 132.749 15.5348C132.249 14.8797 131.999 13.9788 131.999 12.7505C131.999 11.5221 132.249 10.6213 132.749 9.96615C133.249 9.31101 133.832 8.90156 134.499 8.73777C135.082 8.57399 135.666 8.4921 136.166 8.4921C136.666 8.4921 137.249 8.57399 137.916 8.73777C138.499 8.90156 139.082 9.31101 139.582 9.96615C140.082 10.6213 140.416 11.5221 140.416 12.7505C140.416 13.9788 140.082 14.8797 139.582 15.5348C139.082 16.1899 138.499 16.5175 137.916 16.7632C137.249 16.927 136.666 17.0088 136.166 17.0088ZM145.749 16.7632L143.749 10.6213V16.7632H141.749V8.73777H144.749L146.249 13.4875L146.332 14.4702H146.416L146.582 13.5694L147.999 8.73777H150.999V16.7632H148.999V10.6213L147.082 16.7632H145.749Z" fill="white"/>
<path fill-rule="evenodd" clip-rule="evenodd" d="M24.3321 0.794337C29.0822 0.794337 33.1656 3.41488 35.2489 7.1819C34.2489 6.03541 32.9156 4.97082 30.9155 4.39758C29.3322 2.43217 22.7488 1.04001 18.3321 2.35028C19.7488 1.53136 21.9988 0.712445 24.3321 0.794337ZM35.4989 7.83704C36.2489 9.31109 36.6656 11.0308 36.6656 12.8324C36.6656 13.0781 36.5823 13.3238 36.5823 13.5695C36.3322 12.5049 34.9989 11.0308 33.4156 10.5395L33.3322 9.80244C30.7489 7.83704 23.5821 4.39758 14.8321 5.2165L15.6654 4.39758C23.9988 3.49677 32.0822 5.29839 35.4989 7.83704ZM36.5823 13.7332C36.4156 15.5349 35.9156 17.1727 35.0822 18.6468C34.5822 17.4184 33.3322 16.4357 32.5822 16.1081L32.9156 15.2892C30.0822 12.5868 22.9988 8.90163 12.6654 9.2292C12.9154 8.49217 13.2487 7.75514 13.6654 7.01812C13.4154 7.34568 13.2487 7.83704 12.9987 8.41028C23.4988 8.00082 30.7489 10.13 36.5823 13.7332ZM34.9156 18.8105C34.1656 20.2027 33.0822 21.3492 31.8322 22.3319C31.4989 21.6768 30.7489 20.7759 29.8322 20.2027L30.2489 19.7932C26.4155 16.5995 19.9154 13.4876 12.082 13.2419V12.3411C22.1655 12.5868 28.9155 14.8797 34.9156 18.8105ZM31.3322 22.6595C29.9155 23.6422 28.2488 24.2973 26.4155 24.6249C26.3322 24.1335 25.9988 23.5603 25.2488 22.987L25.9155 22.8232C24.2488 21.3492 20.8321 18.4011 12.9987 17.2546C12.6654 16.5176 12.4154 15.6987 12.332 14.8797C12.4154 15.3711 12.4987 15.8624 12.6654 16.3538C22.1655 16.927 25.5822 19.1381 31.3322 22.6595ZM25.7488 24.7068C25.3322 24.7886 24.8321 24.7886 24.3321 24.7886C21.6655 24.7886 19.7488 24.0516 18.3321 23.2327C19.4988 23.4784 21.1654 23.8878 21.1654 23.5603C20.8321 22.5776 17.4987 21.3492 15.6654 21.2673C15.4154 20.9397 15.1654 20.6941 14.9154 20.3665C18.6654 20.9397 22.9988 22.0862 25.7488 24.7068ZM12.082 12.3411C12.1654 11.6041 12.2487 10.9489 12.4154 10.2119C12.2487 10.867 12.1654 11.686 12.082 12.3411Z" fill="white"/>
<path fill-rule="evenodd" clip-rule="evenodd" d="M12.2501 0.794464C14.5001 0.794464 16.5001 1.36771 18.3335 2.35041C17.3335 2.92365 16.4168 3.57879 15.6668 4.3977H3.58337C5.75005 2.18663 8.83341 0.794464 12.2501 0.794464ZM14.8335 5.21662C14.0835 6.19933 13.4168 7.26392 13.0001 8.4104H0.833341C1.33335 7.26392 2.00002 6.19933 2.75002 5.21662H14.8335ZM12.6668 9.22932C12.3334 10.212 12.1668 11.2766 12.0834 12.3412H0C0 11.2766 0.250002 10.212 0.583339 9.22932H12.6668ZM12.0834 13.242C12.1668 14.3066 12.3334 15.3712 12.6668 16.3539H0.583339C0.250002 15.3712 0.0833341 14.3066 0 13.242H12.0834ZM13.0001 17.2547C13.4168 18.4012 14.0835 19.4658 14.8335 20.3666H2.75002C2.00002 19.4658 1.33335 18.4012 0.833341 17.2547H13.0001ZM15.6668 21.2674C16.5001 22.0044 17.3335 22.6596 18.3335 23.2328C16.5001 24.2155 14.5001 24.7888 12.2501 24.7888C8.83341 24.7888 5.83339 23.4785 3.58337 21.2674H15.6668Z" fill="white"/>
</svg>
