<svg width="5040" height="2202" viewBox="0 0 5040 2202" fill="none" xmlns="http://www.w3.org/2000/svg">
<path d="M810.129 682.196L470.964 1627.47C422.931 1761.07 370.211 1851.81 312.805 1899.71C256.57 1948.86 193.306 1973.44 123.013 1973.44C67.9501 1973.44 26.9457 1967.14 0 1954.53L17.5733 1841.1C58.5777 1849.92 92.5527 1854.33 119.498 1854.33C159.331 1854.33 197.407 1836.06 233.725 1799.51C271.215 1764.22 302.261 1706.87 326.863 1627.47L12.3013 682.196H158.16L404.186 1478.12L666.028 682.196H810.129Z" fill="black"/>
<path d="M973.89 1151.05C973.89 1006.11 1010.21 888.265 1082.84 797.519C1155.48 705.513 1252.72 659.509 1374.56 659.509C1494.06 659.509 1589.54 705.513 1661.01 797.519C1733.64 888.265 1769.96 1006.11 1769.96 1151.05V1202.1H1110.96C1117.99 1301.66 1145.52 1381.07 1193.56 1440.3C1242.76 1499.54 1311.3 1529.16 1399.16 1529.16C1506.95 1529.16 1591.88 1498.91 1653.98 1438.41L1726.03 1529.16C1647.53 1609.82 1535.65 1650.15 1390.38 1650.15C1261.51 1650.15 1159.58 1607.3 1084.6 1521.6C1010.79 1435.89 973.89 1312.38 973.89 1151.05ZM1374.56 776.723C1297.24 776.723 1235.73 805.081 1190.04 861.798C1145.52 918.514 1119.16 994.766 1110.96 1090.55H1634.65C1626.45 993.505 1600.09 917.254 1555.57 861.798C1511.05 805.081 1450.71 776.723 1374.56 776.723Z" fill="black"/>
<path d="M2144.22 912.842C2144.22 955.695 2161.2 989.094 2195.18 1013.04C2230.33 1035.73 2272.5 1053.37 2321.71 1065.98C2370.91 1077.32 2420.12 1091.18 2469.32 1107.57C2519.7 1122.69 2561.88 1151.68 2595.85 1194.53C2631 1236.13 2648.57 1292.21 2648.57 1362.79C2648.57 1419.51 2637.44 1468.03 2615.18 1508.36C2594.09 1548.7 2564.8 1578.31 2527.31 1597.22C2491 1616.12 2453.51 1629.36 2414.85 1636.92C2377.36 1645.74 2336.35 1650.15 2291.83 1650.15C2167.65 1650.15 2061.62 1629.36 1973.76 1587.77L2008.9 1476.22C2092.08 1512.78 2183.46 1531.05 2283.05 1531.05C2436.52 1531.05 2513.26 1478.12 2513.26 1372.24C2513.26 1326.87 2495.68 1291.58 2460.54 1266.37C2426.56 1239.91 2384.97 1221 2335.77 1209.66C2286.56 1198.31 2236.77 1185.08 2186.39 1169.96C2137.19 1153.57 2095.01 1125.84 2059.87 1086.77C2025.89 1046.44 2008.9 992.875 2008.9 926.076C2008.9 830.288 2040.53 762.229 2103.8 721.897C2167.06 680.305 2246.14 659.509 2341.04 659.509C2445.31 659.509 2539.62 683.456 2623.97 731.35L2576.52 833.439C2495.68 795.628 2416.6 776.723 2339.28 776.723C2209.24 776.723 2144.22 822.096 2144.22 912.842Z" fill="black"/>
<path d="M2831.31 810.753V682.196H2975.41V451.549H3107.21V682.196H3325.12V810.753H3107.21V1342C3107.21 1407.53 3118.34 1453.54 3140.6 1480.01C3162.85 1505.21 3194.49 1517.82 3235.49 1517.82C3267.12 1517.82 3302.86 1511.51 3342.69 1498.91L3360.26 1618.02C3311.06 1636.92 3265.95 1646.37 3224.95 1646.37C3139.42 1646.37 3076.16 1621.8 3035.16 1572.64C2995.32 1523.49 2975.41 1443.46 2975.41 1332.54V810.753H2831.31Z" fill="black"/>
<path d="M3541.03 1151.05C3541.03 1006.11 3577.35 888.265 3649.99 797.519C3722.62 705.513 3819.86 659.509 3941.7 659.509C4061.2 659.509 4156.69 705.513 4228.15 797.519C4300.79 888.265 4337.1 1006.11 4337.1 1151.05V1202.1H3678.11C3685.13 1301.66 3712.67 1381.07 3760.7 1440.3C3809.91 1499.54 3878.44 1529.16 3966.31 1529.16C4074.09 1529.16 4159.03 1498.91 4221.12 1438.41L4293.17 1529.16C4214.68 1609.82 4102.79 1650.15 3957.52 1650.15C3828.65 1650.15 3726.72 1607.3 3651.75 1521.6C3577.94 1435.89 3541.03 1312.38 3541.03 1151.05ZM3941.7 776.723C3864.38 776.723 3802.88 805.081 3757.19 861.798C3712.67 918.514 3686.31 994.766 3678.11 1090.55H4201.79C4193.59 993.505 4167.23 917.254 4122.71 861.798C4078.19 805.081 4017.86 776.723 3941.7 776.723Z" fill="black"/>
<circle cx="4824.89" cy="214.625" r="214.625" fill="#FF0101"/>
<path d="M2167.87 1839.31C2200.18 1839.31 2226.54 1851.71 2246.96 1876.49C2267.75 1900.93 2278.15 1932.25 2278.15 1970.42C2278.15 2008.27 2267.93 2039.75 2247.51 2064.86C2227.09 2089.98 2199.62 2102.54 2165.09 2102.54C2122.39 2102.54 2090.83 2083.95 2070.41 2046.78V2202H2045.91V1845.85H2070.41V1894.57C2079.32 1878.16 2092.69 1864.93 2110.51 1854.89C2128.33 1844.51 2147.45 1839.31 2167.87 1839.31ZM2070.41 1969.92C2070.41 2003.41 2079.88 2030.37 2098.82 2050.8C2117.75 2070.89 2140.03 2080.94 2165.65 2080.94C2191.64 2080.94 2212.61 2070.39 2228.58 2049.29C2244.54 2027.86 2252.53 2001.23 2252.53 1969.42C2252.53 1937.27 2244.17 1911.15 2227.47 1891.06C2211.13 1870.96 2189.41 1860.92 2162.31 1860.92C2135.2 1860.92 2113.3 1870.79 2096.59 1890.55C2079.88 1910.31 2071.16 1935.26 2070.41 1965.4V1969.92Z" fill="black"/>
<path d="M2455.59 1772.5C2451.88 1769.16 2450.02 1765.3 2450.02 1760.95C2450.02 1756.6 2451.88 1752.91 2455.59 1749.9C2459.3 1746.55 2463.76 1744.88 2468.96 1744.88C2473.78 1744.88 2478.05 1746.55 2481.77 1749.9C2485.85 1752.91 2487.89 1756.6 2487.89 1760.95C2487.89 1765.3 2485.85 1769.16 2481.77 1772.5C2478.05 1775.52 2473.78 1777.03 2468.96 1777.03C2463.76 1777.03 2459.3 1775.52 2455.59 1772.5ZM2481.21 2096.51H2456.7V1845.34H2481.21V2096.51Z" fill="black"/>
<path d="M2684.36 1969.92C2684.36 2006.76 2694.01 2034.56 2713.32 2053.31C2732.62 2071.73 2757.69 2080.94 2788.5 2080.94C2801.87 2080.94 2815.79 2078.76 2830.27 2074.41C2844.75 2070.05 2855.7 2064.03 2863.13 2056.32L2878.72 2072.4C2854.59 2092.49 2824.7 2102.54 2789.06 2102.54C2750.82 2102.54 2719.63 2091.15 2695.5 2068.38C2671.73 2045.27 2659.85 2012.45 2659.85 1969.92C2659.85 1927.73 2671.73 1895.41 2695.5 1872.97C2719.26 1850.53 2750.07 1839.31 2787.95 1839.31C2824.33 1839.31 2852.73 1849.36 2873.15 1869.45L2857.56 1885.53C2843.08 1869.12 2819.88 1860.92 2787.95 1860.92C2757.87 1860.92 2733 1870.12 2713.32 1888.54C2694.01 1906.63 2684.36 1933.75 2684.36 1969.92Z" fill="black"/>
<path d="M3014.78 1866.94V1845.34H3061.56V1784.06H3086.07V1845.34H3155.13V1866.94H3086.07V2033.22C3086.07 2050.3 3089.6 2062.35 3096.65 2069.38C3104.08 2076.42 3114.47 2079.93 3127.84 2079.93C3137.49 2079.93 3149 2078.26 3162.37 2074.91L3166.26 2095C3152.16 2099.36 3139.72 2101.53 3128.95 2101.53C3105.93 2101.53 3088.85 2096.17 3077.71 2085.46C3066.95 2074.74 3061.56 2057.16 3061.56 2032.71V1866.94H3014.78Z" fill="black"/>
<path d="M3537.94 2096.51H3513.44V2059.34C3504.9 2072.4 3492.46 2082.95 3476.13 2090.98C3460.16 2099.02 3442.34 2103.04 3422.66 2103.04C3394.44 2103.04 3370.68 2094.33 3351.38 2076.92C3332.44 2059.17 3322.97 2032.71 3322.97 1997.55V1845.85H3347.48V1997.05C3347.48 2025.18 3354.9 2046.28 3369.75 2060.34C3384.98 2074.41 3403.73 2081.44 3426 2081.44C3451.25 2081.44 3472.04 2073.4 3488.38 2057.33C3505.09 2040.92 3513.44 2021.66 3513.44 1999.56V1845.85H3537.94V2096.51Z" fill="black"/>
<path d="M3734.95 1845.85H3759.45V1889.55C3774.67 1856.06 3800.66 1839.31 3837.42 1839.31C3848.56 1839.31 3899.49 1839.31 3913.43 1839.65V1861.94C3905.07 1861.42 3847.82 1861.42 3836.31 1861.42C3814.77 1861.42 3796.58 1870.63 3781.73 1889.05C3766.88 1907.46 3759.45 1930.4 3759.45 1957.87V2096.51H3734.95V1845.85Z" fill="black"/>
<path d="M3991.4 1969.92C3991.4 1932.08 4002.53 1900.93 4024.81 1876.49C4047.09 1851.71 4076.23 1839.31 4112.25 1839.31C4147.89 1839.31 4176.85 1851.71 4199.13 1876.49C4221.4 1900.93 4232.54 1932.08 4232.54 1969.92V1979.47H4017.01C4018.87 2010.28 4028.15 2034.89 4044.86 2053.31C4061.94 2071.73 4086.26 2080.94 4117.82 2080.94C4153.09 2080.94 4181.49 2072.4 4203.03 2055.32L4218.62 2072.4C4195.23 2092.49 4161.44 2102.54 4117.26 2102.54C4078.65 2102.54 4048.02 2091.15 4025.37 2068.38C4002.72 2045.61 3991.4 2012.79 3991.4 1969.92ZM4112.25 1860.92C4084.03 1860.92 4061.57 1869.79 4044.86 1887.54C4028.52 1905.29 4019.43 1928.73 4017.57 1957.87H4206.37C4204.14 1928.73 4194.86 1905.29 4178.52 1887.54C4162.19 1869.79 4140.09 1860.92 4112.25 1860.92Z" fill="black"/>
<path d="M4416.98 1904.12C4416.98 1917.51 4422.55 1927.89 4433.69 1935.26C4445.2 1942.63 4458.94 1947.99 4474.9 1951.34C4491.24 1954.35 4507.58 1958.03 4523.91 1962.39C4540.25 1966.41 4553.99 1973.94 4565.13 1984.99C4576.63 1995.71 4582.39 2010.28 4582.39 2028.69C4582.39 2043.43 4579.05 2055.99 4572.37 2066.37C4565.68 2076.42 4556.59 2083.95 4545.08 2088.97C4533.94 2094 4522.8 2097.51 4511.66 2099.52C4500.52 2101.53 4488.46 2102.54 4475.46 2102.54C4440.19 2102.54 4408.44 2097.35 4380.23 2086.97L4388.02 2066.37C4414.76 2075.75 4444.09 2080.44 4476.02 2080.44C4497.55 2080.44 4516.3 2076.75 4532.27 2069.38C4548.6 2062.02 4556.77 2048.96 4556.77 2030.2C4556.77 2015.8 4551.02 2004.58 4539.51 1996.55C4528.37 1988.51 4514.63 1982.98 4498.29 1979.97C4482.33 1976.62 4466.18 1973.1 4449.84 1969.42C4433.51 1965.4 4419.58 1958.37 4408.07 1948.32C4396.93 1937.94 4391.37 1924.04 4391.37 1906.63C4391.37 1882.18 4400.83 1864.93 4419.77 1854.89C4439.08 1844.51 4462.28 1839.31 4489.38 1839.31C4519.09 1839.31 4547.3 1845.51 4574.04 1857.9L4563.45 1876.99C4536.72 1866.27 4511.66 1860.92 4488.27 1860.92C4440.75 1860.92 4416.98 1875.32 4416.98 1904.12Z" fill="black"/>
<line x1="2369.24" y1="1856.52" x2="2475.16" y2="1856.52" stroke="black" stroke-width="22"/>
<line x1="2464" y1="2086" x2="2569.92" y2="2086" stroke="black" stroke-width="22"/>
<line x1="3902.13" y1="1850.79" x2="3902.13" y2="1939.99" stroke="black" stroke-width="22"/>
</svg>
