<svg width="162" height="22" viewBox="0 0 162 22" fill="none" xmlns="http://www.w3.org/2000/svg">
<path fill-rule="evenodd" clip-rule="evenodd" d="M151.77 18.2375V12.4311C151.77 9.56605 154.656 7.97754 157.542 7.97754H162V12.208C162 15.1439 158.891 18.2375 155.987 18.2375" fill="#E0D8D8"/>
<path fill-rule="evenodd" clip-rule="evenodd" d="M150.316 0.64856C147.394 0.64856 144.473 3.61572 144.473 6.50992V18.2306H151.888V12.5999C151.888 9.69875 154.811 8.08661 157.735 8.08661H161.999V0.64856" fill="white"/>
<path d="M13.4054 9.44032C13.4054 8.04429 12.7673 3.88123 8.4823 3.88123C4.12007 3.88123 3.51191 8.04429 3.51191 9.44032C3.51191 10.8426 4.12007 15.0536 8.4823 15.0536C12.7673 15.0536 13.4054 10.8426 13.4054 9.44032ZM16.9131 9.44032C16.9131 11.8717 16.0085 14.8854 13.5981 16.6963L17.4489 21.3541L17.3765 21.5765H13.5014L10.7493 18.0201C10.1398 18.1465 9.21223 18.2668 8.4823 18.2668C1.97479 18.2668 0 13.1232 0 9.44032C0 5.86583 1.97479 0.643066 8.4823 0.643066C14.9362 0.643066 16.9131 5.86583 16.9131 9.44032Z" fill="white"/>
<path d="M53.0464 11.2935H55.8659L54.4562 7.88861L53.0464 11.2935ZM54.2335 0.667358H54.6788L62.6747 18.3147H58.7885L57.083 14.2058H51.8349L50.1538 18.3147H46.2432" fill="white"/>
<path d="M75.9539 9.42225C75.9539 8.02622 75.3213 3.86872 71.0426 3.86872C66.6929 3.86872 66.0841 8.02622 66.0841 9.42225C66.0841 10.8183 66.6929 15.0237 71.0426 15.0237C75.3213 15.0237 75.9539 10.8183 75.9539 9.42225ZM79.4553 9.42225C79.4553 11.8405 78.557 14.8493 76.1473 16.6609L79.9911 21.3124L79.9188 21.5285H76.0506L73.3027 17.9846C72.6939 18.1048 71.7726 18.2251 71.0426 18.2251C64.5539 18.2251 62.584 13.0926 62.584 9.42225C62.584 5.85332 64.5539 0.643066 71.0426 0.643066C77.4847 0.643066 79.4553 5.85332 79.4553 9.42225Z" fill="white"/>
<path d="M88.3124 7.71975C90.9622 8.62171 94.3363 9.69878 94.1199 13.3636C93.9508 16.1487 91.4743 18.2792 87.9256 18.2792C85.3704 18.2792 83.4311 17.6656 81.3408 16.5399L82.8473 13.6819C84.4735 14.4643 86.1011 15.0779 87.7579 15.0779C89.2337 15.0779 90.3046 14.44 90.4737 13.4352C90.6672 12.2136 89.407 11.559 87.7579 11.0406C85.1784 10.2352 81.7319 9.40415 81.7319 5.69207C81.7319 2.5637 84.04 0.703491 87.245 0.703491C88.215 0.703491 90.5711 0.92655 93.4387 2.26837L92.198 5.17438C91.3721 4.83737 89.185 3.92845 87.4865 3.92845C86.2994 3.92845 85.2264 4.31968 85.1784 5.51766C85.2264 6.6663 86.6369 7.13049 88.3124 7.71975Z" fill="white"/>
<path d="M114.835 11.2935H117.655L116.245 7.88861L114.835 11.2935ZM116.022 0.667358H116.468L124.458 18.3147H120.571L118.866 14.2058H113.618L111.937 18.3147H108.027" fill="white"/>
<path d="M135.062 0.667358V10.5952L124.597 0.739626L124.324 0.841775V11.2088L127.542 18.3154L127.838 18.1952V8.33264L138.328 18.4356L138.575 18.3154V0.667358" fill="white"/>
<path d="M100.935 3.94649H95.7959V0.666626H109.707V3.94649H104.52V18.3146H100.935" fill="white"/>
<path d="M23.8719 11.2935L25.2809 7.88861L26.6921 11.2935H23.8719ZM31.7523 14.4643L25.505 0.667358H25.059L17.0693 18.3147H20.98L22.6604 14.2058H27.9022L29.5959 18.2667" fill="white"/>
<path d="M32.0244 18.2855H44.0931L45.5752 15.0119H37.6628L45.7248 0.950148L45.5989 0.673584H32.9339V3.91592H40.1936" fill="white"/>
</svg>
