<svg width="75" height="75" viewBox="0 0 75 75" fill="none" xmlns="http://www.w3.org/2000/svg">
<path d="M37.4999 75C47.5165 75 56.9333 71.0991 64.0164 64.0164C71.0991 56.9335 75 47.5165 75 37.4999C75 27.4835 71.0991 18.0665 64.0164 10.9836C56.9335 3.90073 47.5165 0 37.4999 0C16.8223 0 0 16.8223 0 37.4999C0 47.5165 3.90073 56.9335 10.9836 64.0164C18.0665 71.0991 27.4835 75 37.4999 75Z" fill="#2C2C2C"/>
<path d="M1.29688 37.4999C1.29688 27.8302 5.06265 18.7389 11.9005 11.9011C18.7383 5.06311 27.8294 1.29749 37.4993 1.29749C47.1692 1.29749 56.2605 5.06311 63.0982 11.9011C69.936 18.7389 73.7018 27.83 73.7018 37.4999C73.7018 57.4621 57.4614 73.7025 37.4993 73.7025C27.8294 73.7025 18.7383 69.9367 11.9005 63.0989C5.06265 56.2609 1.29688 47.1698 1.29688 37.4999Z" fill="white"/>
<path d="M37.4995 2.78952C18.3297 2.78952 2.78906 18.3302 2.78906 37.5C2.78906 56.6697 18.3297 72.2105 37.4995 72.2105C56.6693 72.2105 72.2099 56.6697 72.2099 37.5C72.2099 18.3302 56.6693 2.78952 37.4995 2.78952Z" fill="white"/>
<path d="M37.5 59.6719C25.255 59.6719 15.3281 49.7451 15.3281 37.5C15.3281 25.255 25.255 15.3281 37.5 15.3281C49.745 15.3281 59.6719 25.255 59.6719 37.5C59.6719 49.7451 49.7452 59.6719 37.5 59.6719Z" fill="#2C2C2C"/>
<path d="M16.7539 37.4999H37.4994V16.7544C26.0421 16.7544 16.7539 26.0428 16.7539 37.4999ZM37.4994 37.4999V58.2455C48.9566 58.2455 58.2448 48.9573 58.2448 37.4999H37.4994Z" fill="white"/>
<path d="M21.2063 16.3454C20.4714 15.631 19.3353 15.4157 18.2688 16.077C18.4725 15.549 18.3893 15.0103 18.2811 14.713C17.8217 13.8751 17.6613 13.7703 17.2826 13.4525C16.0567 12.4239 14.7666 13.3021 13.8439 14.4017L9.38574 19.7146L16.3939 25.5952L21.0953 19.9925C22.1695 18.7123 22.3356 17.4431 21.2063 16.3454ZM38.6613 13.8208L41.0681 7.44158V13.8208H42.8972V4.68457H40.1489L37.6492 11.226H37.6751L35.1754 4.68457H32.4272V13.8208H34.2563V7.44158L36.6632 13.8208H38.6613ZM63.2539 17.6218L59.8101 22.4975L65.149 19.9628L66.5626 21.7085L58.1594 25.7819L56.5004 23.7167L59.8056 18.8838L59.786 18.8596L54.3715 21.0877L52.6962 19.0356L58.4279 11.6629L59.8416 13.4086L56.2523 18.1038L61.7374 15.749L63.2539 17.6218Z" fill="#2C2C2C"/>
<path d="M14.8174 15.7167C15.1276 15.3469 15.8287 15.3621 16.2796 15.7403C16.7753 16.1563 16.7765 16.7461 16.4436 17.1426L13.7961 20.2977L12.1396 18.9077L14.8174 15.7167ZM19.5278 19.4387L16.7365 22.7651L14.9862 21.2964L17.8 17.9429C18.1178 17.5642 18.8263 17.4539 19.3041 17.855C19.845 18.3086 19.8985 18.9969 19.5278 19.4387Z" fill="white"/>
</svg>
