<svg width="157" height="30" viewBox="0 0 157 30" fill="none" xmlns="http://www.w3.org/2000/svg">
<path d="M7.55343 22.5067L0 15.0134L7.56704 7.5067L15.1341 3.05176e-05L22.7011 7.5067L30.2682 15.0134L22.7147 22.5067C18.5603 26.628 15.149 30 15.1341 30C15.1191 30 11.7078 26.628 7.55343 22.5067Z" fill="#FDC509"/>
<path d="M7.55343 22.5067L0 15.0134L7.56704 7.5067L15.1341 3.05176e-05L22.7011 7.5067L30.2682 15.0134L22.7147 22.5067C18.5603 26.628 15.149 30 15.1341 30C15.1191 30 11.7078 26.628 7.55343 22.5067ZM7.5806 17.4842L10.071 15.0133L7.56684 12.5291L5.06268 10.0449L2.55851 12.5291L0.0543443 15.0133L2.54475 17.4842C3.91448 18.8433 5.04754 19.9552 5.06268 19.9552C5.07781 19.9552 6.21088 18.8433 7.5806 17.4842Z" fill="#A2CD55"/>
<path d="M12.5067 27.412C11.0773 25.9886 9.95214 24.8568 10.0063 24.897C10.0961 24.9637 10.3252 24.7515 12.6052 22.4896L15.1057 20.0091L12.6286 17.5514C11.2662 16.1996 10.1515 15.0621 10.1515 15.0235C10.1515 14.9849 10.1317 14.9655 10.1075 14.9803C10.0834 14.9952 8.93967 13.8907 7.56598 12.526L5.06836 10.0448L10.0973 5.02241L15.1262 3.05176e-05L22.6967 7.50672L30.2671 15.0134L22.7137 22.5067C18.5593 26.628 15.1479 30 15.1329 30C15.1178 30 13.936 28.8354 12.5067 27.412Z" fill="#979C8F"/>
<path d="M12.6064 27.4621L10.1056 24.9777L15.1078 19.9822L20.11 14.9867L17.6091 12.5024L15.1081 10.018L12.5899 12.5157L10.0717 15.0134L7.572 12.5336L5.07227 10.0538L10.0612 5.06726C12.8051 2.32465 15.0753 0.0806885 15.106 0.0806885C15.1368 0.0806885 18.5468 3.43855 22.6838 7.5426L30.2056 15.0045L26.4538 18.7625C23.1372 22.0846 15.1739 29.9464 15.1255 29.9464C15.1155 29.9464 13.9819 28.8284 12.6064 27.4621Z" fill="#936BAC"/>
<path d="M12.5987 27.4574L10.0901 24.9684L17.6302 17.4889L25.1703 10.0094L27.6879 12.507L30.2056 15.0045L26.4538 18.7625C23.1372 22.0846 15.1739 29.9464 15.1255 29.9464C15.1155 29.9464 13.9784 28.8264 12.5987 27.4574ZM7.57208 12.5337L5.07227 10.0538L10.0612 5.06726C12.8051 2.32465 15.0753 0.0806885 15.1062 0.0806885C15.1371 0.0806885 16.283 1.19264 17.6527 2.55168L20.1432 5.02268L15.1075 10.0181L10.0719 15.0136L7.57208 12.5337Z" fill="#69BF7A"/>
<path d="M17.6389 22.52C16.2914 21.1831 15.1889 20.053 15.1889 20.0087C15.1889 19.9645 17.4368 17.6984 20.1842 14.9731L25.1794 10.0179L27.697 12.5158L30.2145 15.0137L25.2061 19.9823C22.4515 22.715 20.1733 24.9509 20.1433 24.9509C20.1133 24.9509 18.9863 23.857 17.6389 22.52ZM7.57208 12.5337L5.07227 10.0538L10.0612 5.06726C12.8051 2.32465 15.0753 0.0806885 15.1062 0.0806885C15.1371 0.0806885 16.283 1.19264 17.6527 2.55168L20.1432 5.02268L15.1075 10.0181L10.0719 15.0136L7.57208 12.5337Z" fill="#EF594E"/>
<path d="M17.6399 22.52C16.2925 21.183 15.19 20.0529 15.19 20.0087C15.19 19.9644 17.4379 17.6984 20.1853 14.973L25.1805 10.0179L27.698 12.5157L30.2155 15.0136L25.2072 19.9822C22.4526 22.7149 20.1743 24.9508 20.1444 24.9508C20.1144 24.9508 18.9874 23.8569 17.6399 22.52ZM7.56855 12.5289L5.06445 10.0444L7.5823 7.54707L10.1001 5.04974L12.5401 7.46671C13.8821 8.79604 15.0014 9.92155 15.0275 9.96784C15.0646 10.0338 14.533 10.5895 12.5738 12.5328L10.0726 15.0135L7.56855 12.5289Z" fill="#E7891B"/>
<path d="M17.6374 22.52C16.29 21.183 15.1875 20.0529 15.1875 20.0087C15.1875 19.9644 17.4354 17.6984 20.1828 14.973L25.178 10.0179L27.6955 12.5157L30.213 15.0136L25.2047 19.9822C22.4501 22.7149 20.1718 24.9508 20.1419 24.9508C20.1119 24.9508 18.9849 23.8569 17.6374 22.52Z" fill="#0094D3"/>
<path d="M17.6374 22.5199C16.29 21.183 15.1875 20.0528 15.1875 20.0085C15.1875 19.9642 16.3024 18.8222 17.665 17.4707L20.1424 15.0134L22.6598 17.5112L25.1772 20.0089L22.6869 22.4799C21.3172 23.8389 20.172 24.9508 20.142 24.9508C20.112 24.9508 18.9849 23.8569 17.6374 22.5199Z" fill="#01B4B2"/>
<path d="M60.5633 26.9648C58.0002 26.6172 55.779 25.414 54.2666 23.5541C52.5084 21.392 51.801 18.3675 52.3901 15.5307C52.9915 12.6343 54.8931 10.2168 57.5512 8.96937C60.7911 7.4489 64.7153 7.7137 67.6338 9.64974C68.2997 10.0914 69.2346 10.9577 69.7415 11.6025C71.9395 14.3987 72.3698 18.409 70.8252 21.701C69.4552 24.6207 66.6571 26.5659 63.2179 26.9892C62.6069 27.0644 61.2023 27.0515 60.5633 26.9648ZM63.2436 22.9677C65.4959 22.3894 67.0075 20.2109 67.0066 17.5444C67.0055 14.4349 65.1006 12.165 62.3305 11.9722C59.1741 11.7526 56.7785 14.3757 56.9531 17.8603C57.0886 20.5632 58.6955 22.603 61.0362 23.043C61.6129 23.1514 62.6683 23.1154 63.2436 22.9677ZM85.3371 26.9603C84.298 26.8002 83.4138 26.499 82.6283 26.0377C82.0275 25.6849 81.0932 24.7551 80.7536 24.1719C79.9414 22.7773 79.7144 21.1382 80.1069 19.5015C80.6456 17.2545 82.5521 15.6562 85.3272 15.1249C86.2931 14.94 86.9807 14.9061 89.7622 14.906L92.456 14.906V14.6755C92.456 14.0671 92.1175 13.3303 91.6064 12.8264C91.2231 12.4485 90.5192 12.0779 89.9111 11.9336C88.7284 11.6532 87.2457 11.7094 85.7959 12.0897C84.8564 12.3361 83.4902 12.9357 82.1545 13.6878L81.6266 13.985V11.6854C81.6266 9.54232 81.633 9.38382 81.7213 9.35647C81.7734 9.34032 82.2425 9.17849 82.7637 8.99684C84.4431 8.4115 85.7045 8.14149 87.3046 8.02487C90.5311 7.78969 93.3285 8.58395 94.9737 10.2023C95.939 11.1519 96.4976 12.2085 96.8497 13.7511L96.9723 14.2882L96.9903 20.5326L97.0082 26.7771H94.7321H92.456V25.6222C92.456 24.987 92.4403 24.4673 92.4212 24.4673C92.402 24.4673 92.1888 24.6548 91.9474 24.8839C90.6873 26.0798 89.3525 26.7507 87.7619 26.9876C87.2327 27.0664 85.9304 27.0518 85.3371 26.9603ZM89.2343 22.9396C90.0246 22.7051 90.5145 22.4184 91.0753 21.8621C91.6364 21.3055 91.9303 20.8325 92.1835 20.0789C92.343 19.6043 92.5092 18.7258 92.5099 18.354L92.5102 18.1762L89.8434 18.1971C87.5071 18.2154 87.1297 18.2298 86.7976 18.3138C85.3503 18.6799 84.6047 19.549 84.6047 20.8699C84.6047 21.7898 85.0023 22.4306 85.803 22.8012C86.3909 23.0733 86.7309 23.1248 87.7994 23.1033C88.6377 23.0864 88.8031 23.0676 89.2343 22.9396ZM118.302 26.9868C114.646 26.5642 111.646 24.295 110.413 21.0188C108.776 16.67 110.415 11.7616 114.285 9.42505C115.631 8.6123 117.094 8.16042 118.839 8.01853C120.101 7.91597 121.586 8.09178 122.826 8.4904C123.579 8.73238 124.793 9.33694 125.405 9.77433C127.585 11.3335 128.956 13.6682 129.277 16.3664C129.361 17.0724 129.32 18.6115 129.201 19.2491C128.414 23.4512 125.259 26.401 120.948 26.9655C120.296 27.0509 118.951 27.0618 118.302 26.9868ZM120.837 22.9711C121.617 22.7677 122.406 22.3016 123.003 21.6923C123.659 21.0217 124.132 20.1731 124.386 19.2142C124.556 18.5701 124.622 17.1491 124.512 16.4745C124.142 14.1893 122.71 12.5409 120.694 12.0784C120.076 11.9367 118.903 11.9488 118.328 12.1029C116.826 12.5046 115.63 13.5628 114.99 15.0561C114.649 15.8504 114.458 16.9899 114.515 17.883C114.693 20.6324 116.271 22.5939 118.67 23.0466C119.219 23.1502 120.293 23.1128 120.837 22.9711ZM145.328 26.963C142.364 26.5337 140.026 24.8479 138.701 22.1844C137.467 19.7053 137.276 16.8713 138.161 14.1738C139.135 11.2009 141.448 9.00093 144.356 8.28027C145.235 8.06257 145.709 8.0082 146.712 8.01036C147.475 8.01201 147.767 8.03524 148.213 8.12968C149.599 8.42297 150.616 8.97168 151.806 10.0679L152.343 10.5625V6.58384V2.60516H154.671H157V14.6911V26.7771H154.725H152.451V25.6222C152.451 24.987 152.437 24.4673 152.419 24.4673C152.401 24.4673 152.152 24.6871 151.866 24.9558C150.957 25.8091 149.794 26.4904 148.754 26.7783C147.788 27.0461 146.413 27.1202 145.328 26.963ZM148.726 22.9694C150.503 22.5101 151.848 21.0967 152.346 19.1656C152.708 17.7587 152.549 16.0715 151.936 14.8168C151.046 12.996 149.4 11.953 147.416 11.953C145.235 11.953 143.477 13.2439 142.688 15.4243C142.4 16.2196 142.276 17.3251 142.375 18.2095C142.542 19.6938 143.019 20.7444 143.95 21.6791C144.693 22.425 145.495 22.8577 146.479 23.0429C147.054 23.151 148.163 23.1147 148.726 22.9694ZM32.8759 26.7412C32.8561 26.7215 32.8398 21.2829 32.8398 14.6553V2.60516H38.0015C43.4321 2.60516 43.8398 2.61954 45.023 2.85279C46.9478 3.23226 48.4067 3.96542 49.6001 5.15309C50.2367 5.78663 50.6378 6.336 50.9823 7.04656C52.1236 9.40043 52.1058 12.6262 50.9389 14.932C50.5517 15.6969 50.1968 16.1762 49.5225 16.8443C48.0946 18.2593 46.2857 19.0749 43.8047 19.4224C43.5502 19.4581 42.1817 19.4941 40.4882 19.5097L37.6048 19.5363V23.1567V26.7771H35.2584C33.9679 26.7771 32.8958 26.7609 32.8759 26.7412ZM43.2155 15.3611C45.4798 14.9752 46.7828 13.5312 46.9019 11.276C47.027 8.9067 45.7946 7.31276 43.4256 6.77994C42.9797 6.67963 42.7119 6.66844 40.2716 6.64807L37.6048 6.6258V11.0345V15.4431H40.1697C42.2229 15.4431 42.8305 15.4268 43.2155 15.3611ZM73.5947 26.7412C73.5749 26.7215 73.5586 21.2829 73.5586 14.6553V2.60516H75.887H78.2153V14.6911V26.7771H75.9231C74.6623 26.7771 73.6146 26.7609 73.5947 26.7412ZM99.7479 26.7412C99.728 26.7215 99.7118 22.564 99.7118 17.5022V8.29899H102.013H104.314V9.45997V10.621L104.815 10.1481C106.302 8.74413 107.632 8.18248 109.662 8.10105L110.488 8.0679L110.474 10.2381L110.46 12.4082L109.648 12.4441C106.224 12.5952 104.664 13.8024 104.371 16.5287C104.336 16.8496 104.314 18.9218 104.314 21.9137V26.7771H102.049C100.803 26.7771 99.7677 26.7609 99.7479 26.7412ZM131.171 17.538V8.29899H133.473H135.774V17.538V26.7771H133.473H131.171V17.538ZM131.117 4.4852V2.60516H133.473H135.828V4.4852V6.36524H133.473H131.117V4.4852Z" fill="white"/>
</svg>
