<svg width="1204" height="1807" viewBox="0 0 1204 1807" fill="none" xmlns="http://www.w3.org/2000/svg">
<path d="M826.835 507.335L829.235 500.646H822.129H678.028H674.409L673.279 504.084L416.334 1285.12L174.937 504.17L173.848 500.646H170.16H24.3013H17.3679L19.5571 507.225L333.611 1450.97C309.202 1529.2 278.648 1585.1 242.298 1619.32L242.237 1619.37L242.178 1619.43C206.511 1655.33 169.64 1672.78 131.498 1672.78C105.045 1672.78 71.452 1668.45 30.625 1659.66L25.4437 1658.55L24.6322 1663.78L7.05894 1777.22L6.48484 1780.92L9.88158 1782.51C37.839 1795.59 79.7376 1801.89 135.013 1801.89C206.578 1801.89 270.979 1776.83 328.052 1726.96C386.5 1678.17 439.574 1586.38 487.67 1452.61L487.671 1452.61L826.835 507.335Z" fill="white" stroke="white" stroke-width="10"/>
<circle cx="988.625" cy="214.625" r="214.625" fill="#FF0101"/>
</svg>
