<svg width="152" height="72" viewBox="0 0 152 72" fill="none" xmlns="http://www.w3.org/2000/svg">
<path fill-rule="evenodd" clip-rule="evenodd" d="M72.3938 36C72.3938 55.8818 56.1869 72 36.1969 72C16.2059 72 0 55.8818 0 36C0 16.1182 16.2059 0 36.1969 0C56.1878 0 72.3938 16.1182 72.3938 36ZM37.5152 48.6692H45.011V51.4313H37.5152V51.4496H34.7354V20.4921H37.5152V48.6692ZM63.7204 37.153H45.0548V34.3882H66.4545C66.4829 34.9227 66.4966 35.4582 66.4966 36C66.4966 52.6445 52.9303 66.1365 36.1961 66.1365C19.4619 66.1365 5.89551 52.6445 5.89551 36C5.89551 19.3555 19.4619 5.86347 36.197 5.86347C36.6381 5.86347 37.0784 5.87259 37.5158 5.89175L37.5122 8.63558C37.0741 8.61546 36.6356 8.60543 36.197 8.60548C20.9853 8.60548 8.65244 20.8706 8.65244 36C8.65244 51.1303 20.9843 63.3945 36.197 63.3945C50.9942 63.3945 63.0656 51.7898 63.7131 37.2305L63.7204 37.153ZM27.9043 27.5927C27.1058 28.3868 26.0228 28.833 24.8936 28.833C23.7643 28.833 22.6813 28.3868 21.8828 27.5927C21.0843 26.7985 20.6357 25.7214 20.6357 24.5982C20.6357 23.4751 21.0843 22.398 21.8828 21.6038C22.6813 20.8096 23.7643 20.3634 24.8936 20.3634C26.0228 20.3634 27.1058 20.8096 27.9043 21.6038C28.7028 22.398 29.1514 23.4751 29.1514 24.5982C29.1514 25.7214 28.7028 26.7985 27.9043 27.5927Z" fill="white"/>
<path d="M90.3672 53.6707H116.232V45.9017H99.8633V18.0821H90.3672V53.6707ZM147.481 20.5879C144.516 18.3029 140.698 17.1444 136.142 17.1444C130.732 17.1444 126.211 18.7973 123.068 21.9206C119.787 25.1853 118.05 29.9943 118.05 35.8276C118.05 42.0596 119.886 47.3183 123.22 50.6314C125.838 53.2338 129.325 54.6066 133.315 54.6066C142.075 54.6066 144.09 49.3844 144.09 49.3844V53.6689H152V33.57H136.254V39.8595H143.501C143.501 39.8595 143.571 47.7781 136.09 47.7781C134.19 47.7781 132.497 47.0921 131.195 45.7968C129.165 43.78 128.092 40.3812 128.092 35.9754C128.092 28.678 131.009 24.3214 135.891 24.3214C138.942 24.3214 141.235 26.1841 141.823 29.0073H151.896C151.375 24.9052 150.243 22.7671 147.481 20.5879Z" fill="white"/>
</svg>
